<svg width="450" height="174" viewBox="0 0 450 174" fill="none" xmlns="http://www.w3.org/2000/svg">
<path d="M81.8486 132.36C81.2887 131.113 79.9498 130.415 78.6096 130.688C73.2003 131.791 59.3411 134.693 49.8113 137.384C38.9549 140.449 23.5699 146.103 18.5805 147.965C17.6524 148.311 17.1609 149.309 17.4341 150.261V150.261C17.7283 151.286 18.8004 151.873 19.8207 151.562C25.1136 149.953 40.6192 145.291 51.3406 142.623C60.5316 140.336 73.4977 137.699 79.7361 136.459C81.5947 136.09 82.6245 134.089 81.8486 132.36V132.36Z" fill="#F24E4E"/>
<path d="M24.9561 141.201C24.9148 141.433 24.8941 141.549 24.874 141.612C24.6332 142.367 23.6521 142.555 23.1489 141.943C23.1067 141.892 23.0446 141.792 22.9203 141.592L20.1135 137.072C20.0385 136.951 20.001 136.891 19.9778 136.843C19.7116 136.29 20.0004 135.631 20.5867 135.452C20.6377 135.436 20.7075 135.423 20.8471 135.396L24.587 134.678C24.7266 134.651 24.7964 134.638 24.8496 134.633C25.4604 134.582 25.973 135.088 25.9302 135.7C25.9265 135.753 25.914 135.823 25.8891 135.963L24.9561 141.201Z" fill="white"/>
<path d="M31.361 139.26C31.3197 139.492 31.2991 139.608 31.2789 139.672C31.0381 140.426 30.0571 140.615 29.5538 140.003C29.5117 139.952 29.4495 139.852 29.3253 139.651L26.5184 135.131C26.4434 135.011 26.4059 134.95 26.3828 134.902C26.1166 134.35 26.4053 133.69 26.9916 133.512C27.0426 133.496 27.1125 133.483 27.2521 133.456L30.9919 132.738C31.1316 132.711 31.2014 132.697 31.2545 132.693C31.8654 132.642 32.3779 133.148 32.3352 133.759C32.3315 133.812 32.319 133.882 32.2941 134.022L31.361 139.26Z" fill="white"/>
<path d="M38.361 138.26C38.3197 138.492 38.2991 138.608 38.2789 138.672C38.0381 139.426 37.0571 139.615 36.5538 139.003C36.5117 138.952 36.4495 138.852 36.3253 138.651L33.5184 134.131C33.4434 134.011 33.4059 133.95 33.3828 133.902C33.1166 133.35 33.4053 132.69 33.9916 132.512C34.0426 132.496 34.1125 132.483 34.2521 132.456L37.9919 131.738C38.1316 131.711 38.2014 131.697 38.2545 131.693C38.8654 131.642 39.3779 132.148 39.3352 132.759C39.3315 132.812 39.319 132.882 39.2941 133.022L38.361 138.26Z" fill="white"/>
<path d="M45.361 137.26C45.3197 137.492 45.2991 137.608 45.2789 137.672C45.0381 138.426 44.0571 138.615 43.5538 138.003C43.5117 137.952 43.4495 137.852 43.3253 137.651L40.5184 133.131C40.4434 133.011 40.4059 132.95 40.3828 132.902C40.1166 132.35 40.4053 131.69 40.9916 131.512C41.0426 131.496 41.1125 131.483 41.2521 131.456L44.9919 130.738C45.1316 130.711 45.2014 130.697 45.2545 130.693C45.8654 130.642 46.3779 131.148 46.3352 131.759C46.3315 131.812 46.319 131.882 46.2941 132.022L45.361 137.26Z" fill="white"/>
<path d="M52.361 135.26C52.3197 135.492 52.2991 135.608 52.2789 135.672C52.0381 136.426 51.0571 136.615 50.5538 136.003C50.5117 135.952 50.4495 135.852 50.3253 135.651L47.5184 131.131C47.4434 131.011 47.4059 130.95 47.3828 130.902C47.1166 130.35 47.4053 129.69 47.9916 129.512C48.0426 129.496 48.1125 129.483 48.2521 129.456L51.9919 128.738C52.1316 128.711 52.2014 128.697 52.2545 128.693C52.8654 128.642 53.3779 129.148 53.3352 129.759C53.3315 129.812 53.319 129.882 53.2941 130.022L52.361 135.26Z" fill="white"/>
<path d="M58.361 134.26C58.3197 134.492 58.2991 134.608 58.2789 134.672C58.0381 135.426 57.0571 135.615 56.5538 135.003C56.5117 134.952 56.4495 134.852 56.3253 134.651L53.5184 130.131C53.4434 130.011 53.4059 129.95 53.3828 129.902C53.1166 129.35 53.4053 128.69 53.9916 128.512C54.0426 128.496 54.1125 128.483 54.2521 128.456L57.9919 127.738C58.1316 127.711 58.2014 127.697 58.2545 127.693C58.8654 127.642 59.3779 128.148 59.3352 128.759C59.3315 128.812 59.319 128.882 59.2941 129.022L58.361 134.26Z" fill="white"/>
<path d="M64.361 133.26C64.3197 133.492 64.2991 133.608 64.2789 133.672C64.0381 134.426 63.0571 134.615 62.5538 134.003C62.5117 133.952 62.4495 133.852 62.3253 133.651L59.5184 129.131C59.4434 129.011 59.4059 128.95 59.3828 128.902C59.1166 128.35 59.4053 127.69 59.9916 127.512C60.0426 127.496 60.1125 127.483 60.2521 127.456L63.9919 126.738C64.1316 126.711 64.2014 126.697 64.2545 126.693C64.8654 126.642 65.3779 127.148 65.3352 127.759C65.3315 127.812 65.319 127.882 65.2941 128.022L64.361 133.26Z" fill="white"/>
<path d="M67.361 132.26C67.3197 132.492 67.2991 132.608 67.2789 132.672C67.0381 133.426 66.0571 133.615 65.5538 133.003C65.5117 132.952 65.4495 132.852 65.3253 132.651L62.5184 128.131C62.4434 128.011 62.4059 127.95 62.3828 127.902C62.1166 127.35 62.4053 126.69 62.9916 126.512C63.0426 126.496 63.1125 126.483 63.2521 126.456L66.9919 125.738C67.1316 125.711 67.2014 125.697 67.2545 125.693C67.8654 125.642 68.3779 126.148 68.3352 126.759C68.3315 126.812 68.319 126.882 68.2941 127.022L67.361 132.26Z" fill="white"/>
<path d="M21.9906 152.328C21.9906 152.328 16.7554 146.502 14.6815 142.822C12.6006 139.13 11.5928 133.846 11.5928 133.846L17.2448 132.922C17.3835 132.899 17.4529 132.888 17.5021 132.885C18.0718 132.849 18.5414 133.272 18.5648 133.842C18.5668 133.891 18.5625 133.965 18.554 134.113C18.4461 135.983 18.3261 139.311 18.6442 141.674C19.2279 146.01 21.9906 152.328 21.9906 152.328Z" fill="white"/>
<path d="M32.2015 147.313C32.048 147.134 31.9712 147.045 31.9217 147C31.3304 146.473 30.3899 146.81 30.268 147.593C30.2577 147.658 30.2552 147.776 30.25 148.012L30.1327 153.331C30.1295 153.473 30.128 153.544 30.1325 153.597C30.1842 154.208 30.7683 154.629 31.3641 154.485C31.4159 154.472 31.4829 154.448 31.6167 154.4L35.2018 153.116C35.3357 153.068 35.4026 153.044 35.4506 153.021C36.0025 152.754 36.1865 152.058 35.8386 151.553C35.8084 151.509 35.7621 151.456 35.6694 151.348L32.2015 147.313Z" fill="white"/>
<path d="M24.2976 143.925C24.2976 143.925 23.6897 148.859 23.9473 151.527C24.2057 154.205 25.6008 157.32 25.6008 157.32L28.4083 155.973C28.5388 155.911 28.6041 155.879 28.646 155.854C29.1341 155.558 29.2779 154.954 28.9756 154.469C28.9497 154.428 28.9019 154.366 28.8062 154.241C28.062 153.274 27.0271 151.851 26.4265 150.685C25.1549 148.216 24.2976 143.925 24.2976 143.925Z" fill="white"/>
<path d="M38.7028 145.725C38.5492 145.546 38.4725 145.457 38.4229 145.412C37.8317 144.885 36.8912 145.222 36.7692 146.005C36.759 146.07 36.7564 146.188 36.7512 146.424L36.634 151.743C36.6308 151.885 36.6293 151.956 36.6338 152.009C36.6855 152.62 37.2696 153.041 37.8654 152.897C37.9172 152.884 37.9841 152.86 38.118 152.812L41.7031 151.528C41.837 151.48 41.9039 151.456 41.9519 151.433C42.5038 151.166 42.6878 150.47 42.3399 149.965C42.3097 149.922 42.2633 149.868 42.1707 149.76L38.7028 145.725Z" fill="white"/>
<path d="M45.2384 143.025C45.0849 142.847 45.0081 142.757 44.9586 142.713C44.3673 142.186 43.4269 142.523 43.3049 143.306C43.2947 143.371 43.2921 143.489 43.2869 143.724L43.1696 149.044C43.1665 149.186 43.1649 149.257 43.1694 149.31C43.2211 149.921 43.8052 150.342 44.401 150.198C44.4528 150.185 44.5198 150.161 44.6536 150.113L48.2388 148.829C48.3726 148.781 48.4396 148.757 48.4875 148.734C49.0394 148.467 49.2234 147.771 48.8756 147.266C48.8453 147.222 48.799 147.168 48.7063 147.061L45.2384 143.025Z" fill="white"/>
<path d="M51.7736 140.326C51.62 140.148 51.5433 140.058 51.4937 140.014C50.9025 139.487 49.962 139.824 49.84 140.606C49.8298 140.672 49.8272 140.79 49.822 141.025L49.7048 146.344C49.7016 146.487 49.7001 146.558 49.7046 146.611C49.7563 147.222 50.3404 147.643 50.9362 147.498C50.988 147.486 51.0549 147.462 51.1888 147.414L54.7739 146.13C54.9078 146.082 54.9747 146.058 55.0227 146.035C55.5746 145.768 55.7586 145.072 55.4107 144.567C55.3805 144.523 55.3341 144.469 55.2415 144.361L51.7736 140.326Z" fill="white"/>
<path d="M58.8175 138.486C58.664 138.308 58.5872 138.218 58.5377 138.174C57.9464 137.647 57.006 137.984 56.884 138.766C56.8738 138.832 56.8712 138.95 56.866 139.185L56.7487 144.505C56.7456 144.647 56.744 144.718 56.7485 144.771C56.8002 145.382 57.3843 145.803 57.9801 145.659C58.0319 145.646 58.0989 145.622 58.2327 145.574L61.8179 144.29C61.9517 144.242 62.0187 144.218 62.0666 144.195C62.6185 143.928 62.8025 143.232 62.4547 142.727C62.4244 142.683 62.3781 142.629 62.2854 142.521L58.8175 138.486Z" fill="white"/>
<path d="M64.4919 136.295C64.3383 136.116 64.2615 136.027 64.212 135.983C63.6208 135.455 62.6803 135.792 62.5583 136.575C62.5481 136.641 62.5455 136.758 62.5403 136.994L62.423 142.313C62.4199 142.455 62.4183 142.526 62.4228 142.58C62.4745 143.19 63.0586 143.611 63.6544 143.467C63.7063 143.455 63.7732 143.431 63.907 143.383L67.4922 142.099C67.626 142.051 67.693 142.027 67.741 142.003C68.2928 141.737 68.4768 141.04 68.129 140.536C68.0987 140.492 68.0524 140.438 67.9597 140.33L64.4919 136.295Z" fill="white"/>
<path d="M132.585 53.3862L388.133 9.43703L186.402 77.6646C171.121 82.833 154.229 78.4393 143.402 66.4798L132.299 54.2145C132.034 53.9222 132.196 53.453 132.585 53.3862Z" fill="url(#paint0_linear_209_179)" stroke="#D7DCA2"/>
<g filter="url(#filter0_i_209_179)">
<path d="M6.51759 124.784C6.5181 109.943 16.7228 97.0497 31.1671 93.6406L97.3993 78.0089L96.3211 124.892L13.405 137.295C9.77803 137.837 6.51724 135.028 6.51737 131.361L6.51759 124.784Z" fill="#A6C86D"/>
</g>
<g filter="url(#filter1_i_209_179)">
<path d="M80.5441 98.0536C84.3569 79.2905 94.5325 62.1365 111.191 52.6975C125.787 44.4269 144.741 35.9862 162.082 35.379C178.487 34.8047 199.142 39.0058 215.61 43.3193C233.232 47.9351 245.442 63.3291 247.704 81.4045V81.4045C253.212 125.434 218.882 164.326 174.509 164.326H102.563C84.226 164.326 70.4921 147.521 74.1436 129.551L80.5441 98.0536Z" fill="#A6C86D"/>
</g>
<path d="M179.846 50.5492L437.301 19.6765L232.356 77.5379C216.831 81.9211 200.185 76.6725 189.982 64.1769L179.518 51.3619C179.269 51.0565 179.454 50.5961 179.846 50.5492Z" fill="url(#paint1_linear_209_179)" stroke="#D7DCA2"/>
<path d="M144.397 77.1398C145.653 83.868 141.392 90.2789 134.921 91.4871C128.449 92.6952 122.163 88.2533 120.907 81.5251C119.65 74.7969 123.911 68.386 130.382 67.1778C136.854 65.9697 143.141 70.4116 144.397 77.1398Z" fill="#FFF7F7" stroke="#5B8531"/>
<ellipse cx="132.775" cy="79.3095" rx="4.23961" ry="12.8646" transform="rotate(-10.5745 132.775 79.3095)" fill="#F45C5C"/>
<ellipse cx="132.832" cy="79.0568" rx="2.08334" ry="12.8646" transform="rotate(-10.5745 132.832 79.0568)" fill="#4B4B4B"/>
<g filter="url(#filter2_i_209_179)">
<path d="M156.22 80.7852C156.684 84.7565 147.42 90.683 135.372 92.091C123.325 93.4991 113.183 91.4212 112.719 87.4499C112.255 83.4786 121.844 87.6268 133.891 86.2187C145.938 84.8107 155.756 76.8139 156.22 80.7852Z" fill="#9CBC67"/>
</g>
<g filter="url(#filter3_i_209_179)">
<path d="M158.048 65.0529C156.301 60.4038 143.479 58.8397 130.334 63.7814C117.189 68.7231 107.95 76.4979 109.697 81.1469C111.445 85.7959 118.958 76.0265 132.103 71.0848C145.248 66.1431 159.796 69.7019 158.048 65.0529Z" fill="#89A45C"/>
</g>
<ellipse cx="182.373" cy="122.67" rx="56.2349" ry="35.8464" transform="rotate(-17.218 182.373 122.67)" fill="#A3C56B"/>
<defs>
<filter id="filter0_i_209_179" x="6.51758" y="78.0098" width="96.8818" height="64.3516" filterUnits="userSpaceOnUse" color-interpolation-filters="sRGB">
<feFlood flood-opacity="0" result="BackgroundImageFix"/>
<feBlend mode="normal" in="SourceGraphic" in2="BackgroundImageFix" result="shape"/>
<feColorMatrix in="SourceAlpha" type="matrix" values="0 0 0 0 0 0 0 0 0 0 0 0 0 0 0 0 0 0 127 0" result="hardAlpha"/>
<feOffset dx="9" dy="5"/>
<feGaussianBlur stdDeviation="3"/>
<feComposite in2="hardAlpha" operator="arithmetic" k2="-1" k3="1"/>
<feColorMatrix type="matrix" values="0 0 0 0 0 0 0 0 0 0 0 0 0 0 0 0 0 0 0.2 0"/>
<feBlend mode="normal" in2="shape" result="effect1_innerShadow_209_179"/>
</filter>
<filter id="filter1_i_209_179" x="63.5527" y="29.3262" width="184.732" height="135" filterUnits="userSpaceOnUse" color-interpolation-filters="sRGB">
<feFlood flood-opacity="0" result="BackgroundImageFix"/>
<feBlend mode="normal" in="SourceGraphic" in2="BackgroundImageFix" result="shape"/>
<feColorMatrix in="SourceAlpha" type="matrix" values="0 0 0 0 0 0 0 0 0 0 0 0 0 0 0 0 0 0 127 0" result="hardAlpha"/>
<feOffset dx="-10" dy="-6"/>
<feGaussianBlur stdDeviation="7.5"/>
<feComposite in2="hardAlpha" operator="arithmetic" k2="-1" k3="1"/>
<feColorMatrix type="matrix" values="0 0 0 0 0 0 0 0 0 0 0 0 0 0 0 0 0 0 0.25 0"/>
<feBlend mode="normal" in2="shape" result="effect1_innerShadow_209_179"/>
</filter>
<filter id="filter2_i_209_179" x="112.703" y="76.6895" width="43.5342" height="15.8418" filterUnits="userSpaceOnUse" color-interpolation-filters="sRGB">
<feFlood flood-opacity="0" result="BackgroundImageFix"/>
<feBlend mode="normal" in="SourceGraphic" in2="BackgroundImageFix" result="shape"/>
<feColorMatrix in="SourceAlpha" type="matrix" values="0 0 0 0 0 0 0 0 0 0 0 0 0 0 0 0 0 0 127 0" result="hardAlpha"/>
<feOffset dy="-3"/>
<feGaussianBlur stdDeviation="2"/>
<feComposite in2="hardAlpha" operator="arithmetic" k2="-1" k3="1"/>
<feColorMatrix type="matrix" values="0 0 0 0 0 0 0 0 0 0 0 0 0 0 0 0 0 0 0.25 0"/>
<feBlend mode="normal" in2="shape" result="effect1_innerShadow_209_179"/>
</filter>
<filter id="filter3_i_209_179" x="109.485" y="60.7441" width="48.7068" height="24.625" filterUnits="userSpaceOnUse" color-interpolation-filters="sRGB">
<feFlood flood-opacity="0" result="BackgroundImageFix"/>
<feBlend mode="normal" in="SourceGraphic" in2="BackgroundImageFix" result="shape"/>
<feColorMatrix in="SourceAlpha" type="matrix" values="0 0 0 0 0 0 0 0 0 0 0 0 0 0 0 0 0 0 127 0" result="hardAlpha"/>
<feOffset dy="3"/>
<feGaussianBlur stdDeviation="2"/>
<feComposite in2="hardAlpha" operator="arithmetic" k2="-1" k3="1"/>
<feColorMatrix type="matrix" values="0 0 0 0 0 0 0 0 0 0 0 0 0 0 0 0 0 0 0.25 0"/>
<feBlend mode="normal" in2="shape" result="effect1_innerShadow_209_179"/>
</filter>
<linearGradient id="paint0_linear_209_179" x1="397.769" y1="6.34221" x2="150.853" y2="65.9397" gradientUnits="userSpaceOnUse">
<stop stop-color="#787C50"/>
<stop offset="1" stop-color="#DBE293"/>
</linearGradient>
<linearGradient id="paint1_linear_209_179" x1="447.082" y1="17.0766" x2="197.45" y2="64.0171" gradientUnits="userSpaceOnUse">
<stop stop-color="#787C50"/>
<stop offset="1" stop-color="#DBE293"/>
</linearGradient>
</defs>
</svg>
