<svg width="210" height="347" viewBox="0 0 210 347" fill="none" xmlns="http://www.w3.org/2000/svg">
<path d="M56.955 340.021C56.955 340.021 45.5057 335.566 39.6477 330.566C36.3488 327.751 32.9462 323.16 30.5952 319.674C30.4267 319.424 30.3425 319.299 30.2328 319.099C29.0474 316.94 29.762 313.952 31.7957 312.563C31.9838 312.435 32.1581 312.338 32.5067 312.143L37.0191 309.631C37.1334 309.567 37.1905 309.535 37.2349 309.516C37.7444 309.294 38.3234 309.519 38.5489 310.027C38.5685 310.071 38.5895 310.134 38.6316 310.261C39.5604 313.056 41.8948 319.748 44.2993 324.04C48.19 330.986 56.955 340.021 56.955 340.021Z" fill="white"/>
<path d="M64.0207 336.412C64.0207 336.412 52.31 331.664 46.2698 326.46C42.838 323.504 39.2667 318.702 36.8142 315.093C36.6364 314.832 36.5475 314.701 36.4364 314.5C35.2328 312.324 35.9576 309.32 38.0212 307.932C38.2115 307.804 38.3913 307.705 38.7509 307.509L43.2539 305.046C43.3661 304.985 43.4222 304.954 43.4662 304.935C43.9706 304.719 44.5415 304.94 44.7696 305.439C44.7895 305.482 44.8111 305.545 44.8543 305.67C45.8326 308.497 48.3414 315.434 50.8793 319.887C54.9555 327.04 64.0207 336.412 64.0207 336.412Z" fill="white"/>
<path d="M69.5529 330.908C69.5529 330.908 58.1036 326.453 52.2456 321.453C48.9467 318.637 45.5441 314.047 43.1931 310.56C43.0246 310.31 42.9404 310.185 42.8307 309.986C41.6453 307.827 42.3599 304.839 44.3936 303.45C44.5817 303.321 44.756 303.224 45.1046 303.03L46.042 302.508C46.5371 302.233 46.7846 302.095 46.9588 302.018C48.9955 301.126 51.2144 301.951 52.1734 303.957C52.2554 304.129 52.3632 304.423 52.5786 305.012C53.7235 308.14 55.2948 312.066 56.8972 314.927C60.7879 321.872 69.5529 330.908 69.5529 330.908Z" fill="white"/>
<g filter="url(#filter0_i_209_153)">
<ellipse cx="97.0018" cy="85.6887" rx="80.8267" ry="62.1722" transform="rotate(-19.6047 97.0018 85.6887)" fill="#A3C66B"/>
</g>
<path d="M162.131 228.726C147.984 239.968 127.519 238.197 115.513 224.692L28.2968 126.582C24.6914 122.526 26.0843 116.134 31.0502 113.946L94.4718 86.0024C98.211 84.3549 102.591 85.7901 104.63 89.3309L167.797 199.015C173.521 208.956 171.113 221.59 162.131 228.726V228.726Z" fill="#A3C66B"/>
<path d="M38.3274 328.057C18.9435 315.522 14.7499 288.925 29.3362 271.033L41.632 255.951C46.4642 250.024 54.9819 248.681 61.4036 252.834L77.6757 263.357C79.9945 264.856 80.6586 267.952 79.1591 270.271L42.346 327.195C41.4744 328.543 39.6752 328.929 38.3274 328.057V328.057Z" fill="#A3C66B"/>
<path d="M43.2422 276.632C48.8575 285.467 60.2411 288.628 69.608 283.955L157.861 239.926C177.332 230.211 178.674 202.934 160.251 191.355V191.355C151.569 185.899 140.464 186.173 132.063 192.052L48.4467 250.56C40.0161 256.459 37.7225 267.949 43.2422 276.632V276.632Z" fill="#A3C66B"/>
<path d="M162.522 211.697L175.369 213.691C187.375 215.555 195.597 226.799 193.734 238.806L193.676 239.176L159.09 233.807L162.522 211.697Z" fill="#A3C66B"/>
<defs>
<filter id="filter0_i_209_153" x="16.0347" y="21.1309" width="159.934" height="129.115" filterUnits="userSpaceOnUse" color-interpolation-filters="sRGB">
<feFlood flood-opacity="0" result="BackgroundImageFix"/>
<feBlend mode="normal" in="SourceGraphic" in2="BackgroundImageFix" result="shape"/>
<feColorMatrix in="SourceAlpha" type="matrix" values="0 0 0 0 0 0 0 0 0 0 0 0 0 0 0 0 0 0 127 0" result="hardAlpha"/>
<feOffset dx="-2"/>
<feGaussianBlur stdDeviation="6"/>
<feComposite in2="hardAlpha" operator="arithmetic" k2="-1" k3="1"/>
<feColorMatrix type="matrix" values="0 0 0 0 0 0 0 0 0 0 0 0 0 0 0 0 0 0 0.25 0"/>
<feBlend mode="normal" in2="shape" result="effect1_innerShadow_209_153"/>
</filter>
</defs>
</svg>
