<svg width="211" height="347" viewBox="0 0 211 347" fill="none" xmlns="http://www.w3.org/2000/svg">
<path d="M43.9939 276.892C49.6092 285.726 60.9928 288.888 70.3597 284.215L158.612 240.185C178.084 230.471 179.426 203.194 161.002 191.615V191.615C152.321 186.159 141.216 186.433 132.814 192.312L49.1984 250.819C40.7678 256.718 38.4742 268.208 43.9939 276.892V276.892Z" fill="#8DAB5B"/>
<path d="M39.0793 328.317C19.6955 315.782 15.5019 289.185 30.0881 271.293L42.3839 256.211C47.2161 250.284 55.7339 248.941 62.1555 253.093L78.4277 263.617C80.7465 265.116 81.4106 268.212 79.911 270.53L43.0979 327.455C42.2263 328.803 40.4271 329.189 39.0793 328.317V328.317Z" fill="#8DAB5B"/>
<path d="M57.707 340.281C57.707 340.281 46.2576 335.826 40.3996 330.826C37.1008 328.01 33.6981 323.42 31.3472 319.933C31.1787 319.683 31.0944 319.558 30.9848 319.359C29.7994 317.2 30.5139 314.212 32.5476 312.823C32.7358 312.694 32.9101 312.597 33.2587 312.403L37.7711 309.89C37.8854 309.827 37.9425 309.795 37.9868 309.776C38.4964 309.553 39.0754 309.779 39.3008 310.287C39.3204 310.331 39.3415 310.394 39.3836 310.521C40.3124 313.315 42.6468 320.008 45.0513 324.3C48.942 331.245 57.707 340.281 57.707 340.281Z" fill="white"/>
<path d="M64.7724 336.671C64.7724 336.671 53.0617 331.924 47.0215 326.72C43.5897 323.763 40.0184 318.962 37.5659 315.353C37.3881 315.091 37.2992 314.961 37.1881 314.76C35.9845 312.584 36.7093 309.579 38.7729 308.191C38.9632 308.063 39.143 307.965 39.5026 307.768L44.0056 305.306C44.1178 305.244 44.1739 305.214 44.2179 305.195C44.7223 304.979 45.2932 305.199 45.5213 305.698C45.5412 305.742 45.5628 305.804 45.606 305.929C46.5843 308.757 49.0932 315.693 51.631 320.147C55.7072 327.3 64.7724 336.671 64.7724 336.671Z" fill="white"/>
<path d="M70.3046 331.168C70.3046 331.168 58.8553 326.713 52.9973 321.713C49.6984 318.897 46.2958 314.306 43.9449 310.82C43.7763 310.57 43.6921 310.445 43.5824 310.245C42.397 308.087 43.1116 305.098 45.1453 303.71C45.3334 303.581 45.5077 303.484 45.8563 303.29L46.7937 302.768C47.2888 302.492 47.5363 302.354 47.7105 302.278C49.7472 301.385 51.9661 302.21 52.9251 304.217C53.0071 304.388 53.1149 304.683 53.3303 305.271C54.4752 308.4 56.0465 312.326 57.649 315.187C61.5397 322.132 70.3046 331.168 70.3046 331.168Z" fill="white"/>
<ellipse cx="97.7537" cy="85.9484" rx="80.8267" ry="62.1722" transform="rotate(-19.6047 97.7537 85.9484)" fill="#8DAB5B"/>
<path d="M162.883 228.986C148.736 240.228 128.27 238.457 116.265 224.952L29.0485 126.842C25.4431 122.786 26.836 116.394 31.8019 114.206L95.2235 86.2622C98.9627 84.6147 103.342 86.0498 105.382 89.5907L168.548 199.275C174.273 209.216 171.864 221.849 162.883 228.986V228.986Z" fill="#8DAB5B"/>
</svg>
