<svg width="287" height="453" viewBox="0 0 287 453" fill="none" xmlns="http://www.w3.org/2000/svg">
<g filter="url(#filter0_i_209_163)">
<ellipse cx="143.486" cy="126.751" rx="119.56" ry="91.9659" transform="rotate(-19.6047 143.486 126.751)" fill="#A3C66B"/>
</g>
<path d="M234.398 316.427C215.657 332.427 187.739 331.235 170.429 313.696L68.9865 210.906C65.2573 207.127 66.1758 200.831 70.829 198.275L163.711 147.255C167.531 145.157 172.328 146.503 174.499 150.283L245.011 273.043C252.681 286.396 249.752 303.319 238.04 313.318L234.398 316.427Z" fill="#A3C66B"/>
<path d="M243.294 431.778L248.755 287.758C249.724 262.196 223.84 244.264 200.249 254.153L191.779 257.704C178.423 263.303 170.492 277.174 172.442 291.525L187.737 404.086C189.893 419.949 203.438 431.778 219.446 431.778L243.294 431.778Z" fill="#A3C66B"/>
<path d="M113.5 423.752C113.5 400.521 133.223 382.176 156.393 383.857L244.5 390.246V428.246C244.5 431.008 242.261 433.246 239.5 433.246H116.5C114.843 433.246 113.5 431.903 113.5 430.246V423.752Z" fill="#A3C66B"/>
<path d="M92.9054 432.445C92.9054 432.445 98.7411 421.634 104.427 416.439C107.629 413.513 112.605 410.704 116.355 408.802C116.624 408.666 116.758 408.597 116.97 408.513C119.258 407.604 122.135 408.682 123.262 410.872C123.367 411.075 123.441 411.26 123.591 411.629L125.527 416.418C125.576 416.539 125.6 416.6 125.614 416.646C125.772 417.179 125.477 417.726 124.944 417.887C124.898 417.901 124.833 417.914 124.702 417.94C121.814 418.516 114.885 420.006 110.328 421.861C102.955 424.864 92.9054 432.445 92.9054 432.445Z" fill="white"/>
<path d="M95.6134 439.904C95.6134 439.904 101.772 428.87 107.682 423.519C111.04 420.479 116.246 417.528 120.131 415.541C120.412 415.397 120.553 415.325 120.766 415.239C123.075 414.314 125.966 415.404 127.088 417.624C127.192 417.828 127.267 418.019 127.418 418.4L129.305 423.173C129.352 423.292 129.376 423.351 129.389 423.397C129.541 423.924 129.252 424.464 128.728 424.628C128.683 424.643 128.618 424.656 128.489 424.684C125.562 425.305 118.368 426.938 113.635 428.905C106.033 432.066 95.6134 439.904 95.6134 439.904Z" fill="white"/>
<path d="M100.392 446.074C100.392 446.074 106.227 435.263 111.913 430.068C115.115 427.142 120.091 424.333 123.841 422.431C124.11 422.295 124.244 422.226 124.456 422.142C126.745 421.233 129.622 422.311 130.749 424.501C130.853 424.703 130.928 424.888 131.077 425.258L131.479 426.253C131.692 426.778 131.798 427.041 131.852 427.223C132.486 429.355 131.393 431.455 129.284 432.158C129.103 432.219 128.798 432.289 128.187 432.43C124.941 433.18 120.851 434.254 117.814 435.49C110.441 438.493 100.392 446.074 100.392 446.074Z" fill="white"/>
<path d="M231 267H244C256.15 267 266 276.85 266 289V295H231V267Z" fill="#A3C66B"/>
<defs>
<filter id="filter0_i_209_163" x="26.6772" y="31.2559" width="233.618" height="204.99" filterUnits="userSpaceOnUse" color-interpolation-filters="sRGB">
<feFlood flood-opacity="0" result="BackgroundImageFix"/>
<feBlend mode="normal" in="SourceGraphic" in2="BackgroundImageFix" result="shape"/>
<feColorMatrix in="SourceAlpha" type="matrix" values="0 0 0 0 0 0 0 0 0 0 0 0 0 0 0 0 0 0 127 0" result="hardAlpha"/>
<feOffset dy="14"/>
<feGaussianBlur stdDeviation="20.5"/>
<feComposite in2="hardAlpha" operator="arithmetic" k2="-1" k3="1"/>
<feColorMatrix type="matrix" values="0 0 0 0 0 0 0 0 0 0 0 0 0 0 0 0 0 0 0.25 0"/>
<feBlend mode="normal" in2="shape" result="effect1_innerShadow_209_163"/>
</filter>
</defs>
</svg>
