<svg width="269" height="430" viewBox="0 0 269 430" fill="none" xmlns="http://www.w3.org/2000/svg">
<ellipse cx="134.066" cy="118.43" rx="111.711" ry="85.9282" transform="rotate(-19.6047 134.066 118.43)" fill="#8DAB5B"/>
<path d="M217.398 293.427C198.656 309.427 170.739 308.235 153.429 290.696L51.9863 187.906C48.2571 184.127 49.1755 177.831 53.8288 175.275L146.711 124.255C150.531 122.157 155.328 123.503 157.499 127.283L228.011 250.043C235.681 263.396 232.752 280.319 221.04 290.318L217.398 293.427Z" fill="#8DAB5B"/>
<path d="M226.294 408.778L231.755 264.758C232.724 239.196 206.839 221.264 183.248 231.153L174.779 234.704C161.423 240.303 153.492 254.174 155.442 268.525L170.737 381.086C172.893 396.949 186.438 408.778 202.446 408.778L226.294 408.778Z" fill="#8DAB5B"/>
<path d="M96.5 400.752C96.5 377.521 116.223 359.176 139.393 360.857L227.5 367.246V405.246C227.5 408.008 225.261 410.246 222.5 410.246H99.5C97.8431 410.246 96.5 408.903 96.5 407.246V400.752Z" fill="#8DAB5B"/>
<path d="M75.9054 409.445C75.9054 409.445 81.7411 398.634 87.4268 393.439C90.6286 390.513 95.6046 387.704 99.3548 385.802C99.6236 385.666 99.7581 385.597 99.9698 385.513C102.258 384.604 105.135 385.682 106.262 387.872C106.367 388.075 106.441 388.26 106.591 388.629L108.527 393.418C108.576 393.539 108.6 393.6 108.614 393.646C108.772 394.179 108.477 394.726 107.944 394.887C107.898 394.901 107.833 394.914 107.702 394.94C104.814 395.516 97.8845 397.006 93.3278 398.861C85.9549 401.864 75.9054 409.445 75.9054 409.445Z" fill="#D1CFCF"/>
<path d="M78.6134 416.904C78.6134 416.904 84.7717 405.87 90.6823 400.519C94.0404 397.479 99.2463 394.528 103.131 392.541C103.412 392.397 103.553 392.325 103.766 392.239C106.075 391.314 108.966 392.404 110.088 394.624C110.192 394.828 110.267 395.019 110.418 395.4L112.305 400.173C112.352 400.292 112.376 400.351 112.389 400.397C112.541 400.924 112.252 401.464 111.728 401.628C111.683 401.643 111.618 401.656 111.489 401.684C108.562 402.305 101.368 403.938 96.6355 405.905C89.0335 409.066 78.6134 416.904 78.6134 416.904Z" fill="#D1CFCF"/>
<path d="M83.3917 423.074C83.3917 423.074 89.2274 412.263 94.9131 407.068C98.1149 404.142 103.091 401.333 106.841 399.431C107.11 399.295 107.244 399.226 107.456 399.142C109.745 398.233 112.622 399.311 113.749 401.501C113.853 401.703 113.928 401.888 114.077 402.258L114.479 403.253C114.692 403.778 114.798 404.041 114.852 404.223C115.486 406.355 114.393 408.455 112.284 409.158C112.103 409.219 111.798 409.289 111.187 409.43C107.941 410.18 103.851 411.254 100.814 412.49C93.4412 415.493 83.3917 423.074 83.3917 423.074Z" fill="#D1CFCF"/>
<path d="M214 244H227C239.15 244 249 253.85 249 266V272H214V244Z" fill="#8DAB5B"/>
</svg>
