<svg width="920" height="634" viewBox="0 0 920 634" fill="none" xmlns="http://www.w3.org/2000/svg">
<g filter="url(#filter0_i_209_122)">
<path d="M849.793 633.535L789.274 583.811C774.52 571.689 765.186 554.202 763.325 535.197L758.778 488.769L842.34 557.426L849.793 633.535Z" fill="#DEE77F"/>
</g>
<g filter="url(#filter1_i_209_122)">
<path d="M841.89 554.437L758.328 485.781L808.054 480.911C824.947 479.257 841.805 484.382 854.92 495.157L918 546.985L841.89 554.437Z" fill="#DEE77F"/>
</g>
<g filter="url(#filter2_i_209_122)">
<path d="M82.2516 23.9697C87.0404 13.4945 99.5581 9.17858 109.687 14.6629C170.555 47.6214 366.957 155.648 490.896 243.313C618.571 333.621 792.423 489.376 827.316 520.899C831.058 524.28 831.887 529.673 829.499 534.115L828.034 536.843C824.49 543.436 816.235 545.757 809.849 541.852C761.265 512.145 571.005 396.793 434.875 328.201C306.8 263.669 110.238 198.187 41.3013 175.985C28.0953 171.731 21.4863 156.891 27.2547 144.273L82.2516 23.9697Z" fill="#98B963"/>
</g>
<defs>
<filter id="filter0_i_209_122" x="758.778" y="488.77" width="101.015" height="151.766" filterUnits="userSpaceOnUse" color-interpolation-filters="sRGB">
<feFlood flood-opacity="0" result="BackgroundImageFix"/>
<feBlend mode="normal" in="SourceGraphic" in2="BackgroundImageFix" result="shape"/>
<feColorMatrix in="SourceAlpha" type="matrix" values="0 0 0 0 0 0 0 0 0 0 0 0 0 0 0 0 0 0 127 0" result="hardAlpha"/>
<feOffset dx="11" dy="7"/>
<feGaussianBlur stdDeviation="5"/>
<feComposite in2="hardAlpha" operator="arithmetic" k2="-1" k3="1"/>
<feColorMatrix type="matrix" values="0 0 0 0 0 0 0 0 0 0 0 0 0 0 0 0 0 0 0.25 0"/>
<feBlend mode="normal" in2="shape" result="effect1_innerShadow_209_122"/>
</filter>
<filter id="filter1_i_209_122" x="754.328" y="480.607" width="163.672" height="78.8301" filterUnits="userSpaceOnUse" color-interpolation-filters="sRGB">
<feFlood flood-opacity="0" result="BackgroundImageFix"/>
<feBlend mode="normal" in="SourceGraphic" in2="BackgroundImageFix" result="shape"/>
<feColorMatrix in="SourceAlpha" type="matrix" values="0 0 0 0 0 0 0 0 0 0 0 0 0 0 0 0 0 0 127 0" result="hardAlpha"/>
<feOffset dx="-4" dy="5"/>
<feGaussianBlur stdDeviation="4"/>
<feComposite in2="hardAlpha" operator="arithmetic" k2="-1" k3="1"/>
<feColorMatrix type="matrix" values="0 0 0 0 0 0 0 0 0 0 0 0 0 0 0 0 0 0 0.25 0"/>
<feBlend mode="normal" in2="shape" result="effect1_innerShadow_209_122"/>
</filter>
<filter id="filter2_i_209_122" x="25.1587" y="-14.7266" width="805.686" height="558.48" filterUnits="userSpaceOnUse" color-interpolation-filters="sRGB">
<feFlood flood-opacity="0" result="BackgroundImageFix"/>
<feBlend mode="normal" in="SourceGraphic" in2="BackgroundImageFix" result="shape"/>
<feColorMatrix in="SourceAlpha" type="matrix" values="0 0 0 0 0 0 0 0 0 0 0 0 0 0 0 0 0 0 127 0" result="hardAlpha"/>
<feOffset dy="-27"/>
<feGaussianBlur stdDeviation="15"/>
<feComposite in2="hardAlpha" operator="arithmetic" k2="-1" k3="1"/>
<feColorMatrix type="matrix" values="0 0 0 0 0 0 0 0 0 0 0 0 0 0 0 0 0 0 0.25 0"/>
<feBlend mode="normal" in2="shape" result="effect1_innerShadow_209_122"/>
</filter>
</defs>
</svg>
